<?xml version="1.0" encoding="UTF-8"?>
<svg enable-background="new 0 0 1625.091 1045.1" version="1.1" viewBox="0 0 1625.091 1045.1" xmlns="http://www.w3.org/2000/svg">
 <path d="m117 1045c-0.332-2.096-1.389-4.066-0.969-6.294 2.312-12.259-1.573-23.686-4.671-35.241-2.578-9.613-6.467-18.872-7.781-28.827-1.239-9.385-1.08-18.632 3.141-27.353 4.192-8.662 3.734-17.725 2.819-26.907-3.196-32.103-9.106-64.002-7.388-96.48 0.872-16.483 0.685-32.984 0.919-49.477 0.045-3.165 0.061-6.34-0.136-9.496-0.342-5.49-1.378-6.719-6.734-5.904-8.354 1.271-14.929-1.869-21.036-6.968-7.92-6.614-13.92-14.727-18.723-23.778-2.315-4.362-2.606-8.878-0.673-13.467 1.997-4.742 3.735-9.623 6.098-14.177 7.811-15.056 14.506-30.607 20.754-46.348 2.291-5.772 5.823-9.451 12.108-10.472 3.45-0.56 6.858-1.727 9.491-4.149 5.139-4.727 11.363-6.709 18.057-7.682 0.494-0.072 1.021-0.084 1.468-0.275 2.611-1.119 6.443-0.585 7.17-4.384 0.825-4.316-0.272-8.254-3.642-11.34-0.245-0.224-0.505-0.456-0.801-0.594-17.652-8.243-22.498-24.656-26.598-41.578-1.02-4.211-1.948-8.413-2.167-12.76-0.414-8.224 1.827-15.594 7.676-21.432 8.014-7.998 16.106-15.949 25.423-22.491 0.953-0.669 1.883-1.409 2.921-1.917 6.773-3.317 13.109-5.736 21.435-3.479 15.122 4.1 27.06 12.385 37.621 23.343 4.467 4.635 6.816 10.315 7.08 16.629 0.579 13.847-0.36 27.619-2.909 41.266-0.931 4.988-3.489 8.294-8.429 10.138-8.555 3.193-11.053 10.237-6.609 18.298 3.763 6.826 9.411 11.472 17.487 11.472 12.338-1e-3 22.799 3.856 31.204 13.069 1.548 1.697 3.578 2.98 5.472 4.332 5.311 3.791 10.834 3.988 16.326 0.5 8.3-5.27 14.857-12.352 20.024-20.62 2.52-4.032 2.872-8.864 2.529-13.547-0.472-6.444 0.609-12.459 3.059-18.467 3.549-8.7 3.02-10.388-4.423-16.039-4.724-3.586-6.282-8.383-6.589-13.888-1.04-18.698 0.087-37.252 3.412-55.7 2.039-11.309 3.351-22.743 3.503-34.24 0.363-27.325 0.496-54.662 2.18-81.942 1.313-21.266 3.278-42.489 5.539-63.683 1.518-14.227 3.372-28.406 5.19-42.595 2.106-16.435 12.303-25.095 26.819-30.036 6.593-2.244 13.528-3.368 20.078-5.851 14.141-5.361 19.028-12.225 19.355-27.39 0.173-8.009-0.617-15.97-0.976-23.954-0.975-21.663 0.364-43.311 0.993-64.959 0.269-9.267 4.011-16.965 10.88-23.294 7.011-6.46 14.606-12.07 22.549-17.318 5.778-3.818 11.637-5.398 18.409-3.483 2.704 0.764 5.55 1.035 8.339 1.488 17.367 2.821 27.737 13.994 34.693 29.163 8.631 18.821 14.65 38.441 18.031 58.887 1.165 7.042 2.572 14.058 4.225 21.001 2.295 9.638 2.045 19.091-0.862 28.551-1.331 4.332-1.074 8.484 2.041 12.228 1.66 1.995 3.373 3.364 6.028 3.991 8.584 2.029 16.908 4.855 24.787 8.922 6.586 3.4 11.499 8.279 14.771 14.999 9.332 19.169 15.932 39.381 23.006 59.417 14.985 42.442 27.962 85.502 39.864 128.9 2.36 8.604 6.766 16.223 11.544 23.644 0.769 1.194 1.476 3.316 3.044 2.912 1.945-0.501 2.926-2.483 3.321-4.57 1.052-5.549 2.064-11.107 3.254-16.626 7.489-34.746 14.473-69.601 22.759-104.17 0.877-3.657 1.671-6.808 6.422-6.626 2.061 0.079 2.013-1.248 1.098-2.675-0.09-0.14-0.145-0.31-0.256-0.428-8.607-9.146-6.376-19.727-3.679-30.153 7.869-30.417 17.648-60.185 30.611-88.866 5.329-11.79 13.357-20.464 25.78-24.872 10.801-3.832 21.509-7.93 32.216-12.019 6.339-2.421 9.356-8.31 8.19-15.079-0.319-1.853-1.074-2.638-2.89-2.587-1.165 0.033-2.335 0.01-3.498-0.067-5.052-0.331-7.04-2.35-6.212-7.406 0.753-4.602 0.233-8.549-2.969-12.042-0.542-0.592-1.086-1.439-1.126-2.195-0.399-7.536-5.226-12.654-9.523-18.16-3.377-4.328-3.087-6.881 1.376-10.083 4.111-2.949 4.881-6.322 4.218-11.173-1.507-11.031-4.8-21.76-5.422-32.925-0.023-0.408-0.288-0.803-0.439-1.205-0.259 0.355-0.51 0.716-0.778 1.065-0.727 0.943-0.637 3.09-2.306 2.575-1.539-0.475-0.747-2.34-0.657-3.543 0.295-3.978 0.526-7.988 1.247-11.901 1.432-7.781 6.797-12.251 14.016-13.94 8.572-2.006 16.432-5.181 23.498-10.414 10.152-7.517 21.374-6.913 32.976-4.531 14.178 2.912 27.054 8.973 39.755 15.574 6.519 3.388 9.446 9.114 10.515 16.015 2.701 17.436 4.715 34.953 6.096 52.545 0.364 4.637 1.795 9.114 2.052 13.8 0.351 6.4-1.545 11.859-6.148 16.247-6.99 6.663-8.435 11.773 0.35 21.335 5.498 5.984 12.284 10.078 19.716 13.291 9.289 4.016 18.773 7.485 28.28 10.925 4.049 1.465 7.881 3.533 11.806 5.339 15.453 7.114 26.287 18.249 33.167 34.155 13.787 31.876 27.171 63.861 37.027 97.209 1.958 6.625 0.994 8.645-4.896 12.453-9.893 6.396-10.041 6.755-6.796 18.236 4.556 16.124 10.447 31.862 13.695 48.369 2.584 13.134 3.465 26.423 3.577 39.732 0.253 30.161 0.13 60.326 0.147 90.489 3e-3 5.5 0.222 10.97 0.854 16.453 0.761 6.594 5.427 9.246 10.681 11.218 5.25 1.97 10.055 1.349 13.946-3.359 4.385-5.306 7.905-11.079 10.557-17.415 1.073-2.562 1.286-5.181 0.587-7.817-1.063-4.01-1.988-8.093-3.498-11.939-2.092-5.327-1.434-9.912 1.986-14.48 5.599-7.479 11.587-14.59 17.927-21.458 6.679-7.236 14.827-11.038 24.442-12.147 1.481-0.171 2.933-0.599 4.414-0.76 7.159-0.779 10.674-3.966 9.755-13.776-0.655-6.995-2.288-13.737-7.573-19.076-2.973-3.003-3.58-7.106-3.418-11.173 0.648-16.333 2.871-32.532 7.274-48.206 4.427-15.761 17.595-22.212 32.167-25.922 14.129-3.597 25.64 1.339 35.625 11.519 9.245 9.426 12.399 21.386 15.2 33.566 3.982 17.319 8.119 34.613 11.546 52.045 4.239 21.561 11.967 41.754 22.07 61.154 2.607 5.007 4.963 10.147 7.339 15.271 0.913 1.968 1.875 4.236 0.392 6.188-5.069 6.671-2.968 13.911-2.088 21.135 2.699 22.157 5.425 44.331 2.731 66.702-1.352 11.229-3.069 22.478-6.17 33.312-5.273 18.424-3.637 36.041 1.547 54.334 10.543 37.204 20.75 74.522 30.022 112.08 1.571 6.365-0.461 12.561 0.015 18.839 0.069 0.907-0.786 1.562-2.122 1.459-13.122-1.015-26.173 0.501-39.249 1.184-2.206 0.115-2.961 0.596-3.12 3.122-0.976 15.45-2.096 30.894-3.486 46.312-1.583 17.567-3.51 35.103-5.254 52.657-0.164 1.653-0.069 3.33-0.117 4.996-0.062 2.161 0.983 3.042 3.095 2.747 10.253-1.434 20.606-0.912 30.906-1.56 23.769-1.495 47.371-4.666 71.086-6.642 36.304-3.026 72.25-10.197 108.87-9.5 9.491 0.181 18.999 0.409 28.46 1.128 26.422 2.007 52.555-1.272 78.729-3.901 23.843-2.395 47.686-4.783 71.512-7.343 22.663-2.435 45.302-5.088 67.952-7.646 6.282-0.71 12.592-1.243 18.835-2.207 3.559-0.549 5.551 0.66 6.554 3.941 0 35.488-0.061 70.976 0.091 106.46 0.016 3.659-0.712 4.637-4.552 4.636-301.73-0.109-603.46-0.1-905.2-0.1h-468.34c-1-0.767-2-2.228-3 0h-127zm572.08-689.78c0 0.467 0.096-0.216-0.021-0.861-0.216-1.191 0.848-2.9-0.86-3.463-1.143-0.377-2.034 0.866-2.959 1.548-2.458 1.811-3.231 4.607-4.098 7.265-4.116 12.623-8.202 25.257-12.167 37.928-10.036 32.073-20.044 64.081-41.922 90.765-7.449 9.086-8.31 20.4-7.458 31.791 0.413 5.531 1.046 11.13 4.733 15.495 5.284 6.254 7.848 13.366 8.409 21.408 0.148 2.13 0.724 4.253 1.295 6.326 1.707 6.203 0.946 8.563-4.448 12.237-3.711 2.528-7.703 4.672-10.69 8.137-4.251 4.932-9.775 7.965-15.668 10.373-8.671 3.543-15.204-0.201-16.412-9.475-1.201-9.217-1.515-18.637-6.881-26.767-5.163-7.823-8.785-16.365-11.939-25.148-5.299-14.754-12.835-28.062-24.625-38.756-6.77-6.14-11.211-13.881-14.412-22.461-6.731-18.044-12.908-36.276-18.942-54.558-7.022-21.277-13.903-42.6-20.854-63.9-0.292-0.895-0.027-2.456-1.183-2.468-1.712-0.017-0.889 1.749-1.181 2.685-5.56 17.829-4.156 35.872-1.334 53.894 3.506 22.382 9.845 44.043 17.14 65.448 1.933 5.671 4.19 11.589 2.803 17.533-2.769 11.866-0.652 22.923 3.152 34.184 19.496 57.708 38.371 115.62 56.851 173.66 4.547 14.282 8.115 28.817 8.673 43.862 0.298 8.038-2.394 11.415-9.906 14.23-9.998 3.748-20.432 5.851-30.873 7.834-10.12 1.922-20.294 3.573-30.458 5.256-2.898 0.48-4.118 1.253-3.309 4.774 1.372 5.975 1.797 12.162 2.738 18.242 4.009 25.894 3.72 51.541-1.694 77.373-7.734 36.899-16.182 73.652-23.135 110.72-2.211 11.786-1.339 23.163 2.515 34.375 2.531 7.365 7.444 11.616 15.689 11.177 4.489-0.239 8.995-0.147 13.484-0.377 14.968-0.768 29.909-1.894 44.817-3.459 21.348-2.242 42.695-4.494 64.054-6.637 11.885-1.192 23.709-3.263 35.757-0.753 6.982 1.455 11.366-1.107 13.545-7.925 2.933-9.177 8.581-14.111 18.246-14.983 6.28-0.566 10.742-4.222 13.099-10.159 1.591-4.008 2.99-8.092 4.573-12.103 0.847-2.145 1.006-5.049 3.037-6.151 6.848-3.714 5.886-9.06 3.839-14.919-0.485-1.389-0.558-2.945-0.675-4.435-0.334-4.232 1.111-7.519 5.22-9.253 1.683-0.71 3.382-1.389 5.106-1.99 4.072-1.419 5.861-4.027 4.891-8.441-1.461-6.65-3.086-13.292-3.995-20.025-0.574-4.25-4.152-7.14-4.491-11.134-1.236-14.588-2.175-29.202-3.128-43.812-1.496-22.932-2.862-45.873-4.376-68.804-1.481-22.432-3.245-44.846-4.582-67.286-1.437-24.109-3.905-48.069-8.539-71.795-4.762-24.38-6.232-48.779-0.748-73.331 3.121-13.972 5.333-28.149 4.825-42.549-0.765-21.659-4.106-43.053-7.126-64.467-2.311-16.382-3.3-32.755-1.851-49.291 1.234-14.084 2.598-28.168 0.573-42.367-0.628-4.392-2.609-8.547-2.124-14.219zm-382.66 415.82c-14.577-0.322-14.661-0.319-15.077-12.029-0.314-8.858-0.243-17.637 5.388-25.334 1.643-2.246 2.201-5.165 2.327-8.054 0.43-9.844 2.43-19.446 4.489-29.043 2.995-13.955 7.372-27.603 9.469-41.753 1.148-7.75-1.103-9.982-9.033-9.945-2.907 0.014-5.206 0.912-6.933 3.204-2.703 3.587-5.518 7.102-8.017 10.828-14.174 21.13-35.109 33.023-57.899 42.265-6.594 2.674-7.912 3.667-8.081 10.755-0.688 28.809-1.502 57.616-1.919 86.43-0.859 59.293-0.643 118.6-3.04 177.87-0.19 4.701-2.074 7.491-6.319 9.003-2.187 0.779-4.339 1.657-6.536 2.404-2.604 0.886-4.059 2.82-4.937 5.265-4.223 11.758 6.563 27.413 19.113 27.711 2.703 0.064 5.323 0.274 7.59 1.935 4.585 3.36 8.801 7.221 12.294 11.622 1.808 2.279 3.329 3.087 6.052 2.896 15.941-1.122 31.901-1.985 47.834-3.204 15.43-1.18 30.817-3.002 46.259-3.931 9.739-0.586 16.435-4.351 19.328-13.967 0.377-1.251 1.046-2.476 1.821-3.537 9.589-13.127 9.881-27.583 6.968-42.878-4.143-21.752-5.987-43.813-7.632-65.885-1.163-15.596-2.538-31.175-4.477-46.705-2.086-16.71-3.33-33.451-0.687-50.264 1.445-9.195 2.524-18.449 3.662-27.69 0.566-4.596-0.453-5.655-5.114-5.695-2.324-0.02-4.658 0.261-6.972 0.129-14.293-0.818-28.583-1.714-39.921-2.404zm668.4 222.81c4.489-0.273 8.981-0.515 13.467-0.827 4.648-0.323 9.297-0.655 13.934-1.097 2.466-0.235 5.364-0.293 4.76-4.08-0.831-5.21 1.939-8.049 6.205-10.148 2.232-1.098 4.354-2.444 6.437-3.813 10.199-6.7 16.417-20.559 12.953-32.235-3.11-10.482-2.098-20.691-1.116-31.113 1.486-15.758 2.8-31.529 1.486-47.376-1.005-12.12-5.553-17.257-17.154-19.016-4.764-0.722-9.566-1.295-14.426-1.146-6.66 0.205-13.325 0.406-19.986 0.339-5.233-0.053-7.485-2.179-8.386-7.307-1.007-5.725-0.463-11.277 2.048-16.575 4.516-9.528 6.1-19.629 5.847-30.078-0.208-8.57 1.213-16.853 3.819-25.015 12.318-38.572 25.643-76.859 32.875-116.87 3.433-18.993 7.498-37.911 6.292-57.386-0.512-8.265-0.545-16.669-4.761-24.252-3.348-6.022-4.631-6.175-8.052-0.4-4.32 7.293-8.434 14.707-12.699 22.033-2.192 3.764-4.814 7.126-8.536 9.616-13.272 8.876-28.286 6.251-41.097-5.051-2.786-2.458-4.727-6.388-9.143-2.531-0.377 0.329-1.297 0.171-1.931 0.053-8.099-1.501-15.489-4.019-19.102-12.495-0.967-2.268-2.535-4.284-3.877-6.384-0.64-1.002-1.404-1.803-2.825-1.635-2.897 0.342-7.799 4.779-8.063 7.725-0.919 10.269-2.268 20.507-1.078 30.882 1.005 8.76 1.497 17.578 2.301 26.362 1.76 19.226 3.648 38.44 5.345 57.672 1.946 22.052 3.967 44.102 5.536 66.182 1.428 20.098 2.311 40.234 3.402 60.355 1.714 31.606 2.726 63.238 3.771 94.872 0.416 12.581-1.253 24.885-3.196 37.212-0.596 3.783 0.409 6.932 3.574 9.223 3.567 2.582 5.406 6.216 6.445 10.357 1.172 4.673 2.554 9.268 4.487 13.7 2.588 5.932 7.003 8.912 13.479 9.427 8.986 0.714 17.959 1.123 26.965 0.82zm-170.43 8.724c13.994-0.392 27.954-1.311 41.884-2.639 5.816-0.554 11.554-1.657 16.783-4.405 4.219-2.218 4.858-4.349 2.477-8.489-2.485-4.321-5.241-8.489-7.947-12.679-4.576-7.084-6.975-14.843-6-23.216 1.615-13.868 0.322-27.611-1.033-41.365-2.184-22.162-2.385-44.215 3.031-66.018 4.456-17.938 5.376-35.726-1.103-53.515-3.859-10.596-6.914-21.483-10.43-32.206-12.049-36.743-24.144-73.47-36.203-110.21-0.319-0.972-0.513-1.846-1.787-2.01-4.099-0.525-9.022 3.945-8.823 8.059 1.108 22.804 1.699 45.617 1.79 68.453 0.061 15.292-2.557 29.677-10.565 42.98-4.604 7.649-6.676 16.139-6.877 25.204-0.226 10.169-0.133 20.323-0.027 30.488 0.452 43.492 2.466 86.953 2.46 130.45-1e-3 9.431-2.279 18.022-6.907 26.171-2.701 4.755-5.74 9.367-7.518 14.601-1.886 5.553-0.748 7.787 4.934 8.882 10.533 2.031 21.205 1.815 31.861 1.459zm-359.93-174.32c0.531-7.113 1.179-14.219 1.769-21.326 0.965-11.615 2.528-25.108-1.21-36.37-0.86-2.592-1.798-3.685-4.844-3.31-9.244 1.137-18.53 1.964-27.819 2.668-2.61 0.198-3.409 0.922-3.16 3.581 0.622 6.627 1.042 13.278 1.365 19.928 0.768 15.813 1.3 31.669 0.074 47.445-2.306 29.681-8.137 58.954-10.227 88.706-1.795 25.568-1.312 50.823 3.599 76.026 2.26 11.602 7.795 19.821 19.347 23.669 2.594 0.864 3.933 0.514 5.398-1.561 5.664-8.023 11.03-16.207 15.249-25.116 3.041-6.422 4.4-13.213 4.968-20.205 2.01-24.78 1.416-49.597 0.949-74.409-0.104-5.504-1.008-10.926-2.554-16.214-4.288-14.665-4.332-30.214-3.897-45.346 0.175-6.065 0.542-12.118 0.993-18.166zm-107.51-402.37c0-7.16 0.21-14.328-0.063-21.477-0.241-6.325-1.582-12.505-3.701-18.509-0.848-2.402-2.239-4.644-4.732-4.4-2.335 0.229-2.023 3.144-2.349 4.941-4.09 22.576-6.728 45.37-10.018 68.067-4.34 29.94-8.25 59.943-12.691 89.868-2.153 14.505-1.03 28.47 4.327 42.121 1.119 2.852 2.484 5.411 5.029 7.248 4.637 3.347 6.07 2.871 7.167-2.607 2.222-11.096 3.618-22.322 4.807-33.559 1.349-12.753 2.156-25.527 0.458-38.361-1.78-13.456-2.756-27.101 3.272-39.747 8.152-17.103 9.201-35.196 8.494-53.585zm548.53-39.217c0.063 3e-3 0.126 5e-3 0.188 7e-3 0.851 18.467 1.091 36.989 2.724 55.387 1.69 19.032 4.807 37.935 7.153 56.913 1.214 9.822 3.403 19.287 8.452 27.927 1.612 2.758 3.445 5.284 6.055 7.206 4.544 3.346 6.981 3.012 9.672-1.761 2.639-4.68 4.358-9.658 4.281-15.17-0.152-10.847-1.431-21.582-2.993-32.292-3.245-22.25-8.197-44.152-16.252-65.124-4.786-12.46-8.598-24.8-7.636-38.237 0.464-6.477-3.073-10.592-7.798-14.14-2.457-1.845-3.862-1.621-3.852 1.798 0.018 5.831 6e-3 11.658 6e-3 17.486zm212.61 479.89c0.118-1.327 0.28-2.652 0.347-3.982 0.323-6.4-0.714-7.326-7.014-6.786-3.603 0.309-7.161 1.548-10.865 0.367-1.947-0.621-2.317 0.894-2.896 2.446-1.544 4.14-1.641 8.452-2.015 12.744-1.935 22.217-4.354 44.402-3.8 66.768 0.271 10.961 0.594 21.882-2.592 32.675-1.968 6.665 0.015 10.01 6.047 13.766 3.402 2.118 7.064 3.646 10.929 4.752 11.171 3.198 14.942-0.03 13.483-11.538-0.899-7.094-2.376-14.203-2.385-21.306-0.035-29.969-0.864-59.95 0.761-89.906zm39.148-257.87c-0.023-6.002 0.561-12.041-0.529-17.961-0.508-2.759-0.323-7.851-2.406-7.758-3.26 0.145-5.13 4.198-6.18 7.664-0.048 0.159-0.054 0.332-0.112 0.486-5 13.466 0.062 25.04 6.839 36.284 0.236 0.392 0.621 0.694 0.936 1.037 0.201-0.596 0.549-1.185 0.581-1.79 0.32-5.985 0.588-11.974 0.871-17.962zm-969.21 399.34c-0.15-3.987 0.192-8.001-0.6-11.951-0.284-1.416-0.133-3.171-1.938-3.731-1.615-0.501-2.359 0.95-3.256 1.834-2.252 2.219-4.415 4.527-6.616 6.797-3.405 3.512-4.833 7.537-2.926 12.271 2.028 5.034 6.38 6.911 11.265 7.976 2.688 0.586 3.978-0.437 4.332-3.231 0.424-3.362-0.272-6.643-0.261-9.965z"/>
</svg>
