<?xml version="1.0" standalone="no"?>
<!DOCTYPE svg PUBLIC "-//W3C//DTD SVG 20010904//EN"
 "http://www.w3.org/TR/2001/REC-SVG-20010904/DTD/svg10.dtd">
<svg version="1.0" xmlns="http://www.w3.org/2000/svg"
 width="1280.000000pt" height="724.000000pt" viewBox="0 0 1280.000000 724.000000"
 preserveAspectRatio="xMidYMid meet">
<metadata>
Created by potrace 1.15, written by Peter Selinger 2001-2017
</metadata>
<g transform="translate(0.000000,724.000000) scale(0.100000,-0.100000)"
fill="#9c27b0" stroke="none">
<path d="M1879 7231 c-211 -69 -449 -375 -503 -647 -8 -38 -15 -61 -15 -50 -2
38 -72 230 -108 293 -58 104 -144 205 -214 252 -59 40 -68 43 -117 39 -45 -4
-59 -11 -91 -42 -22 -21 -53 -69 -71 -107 -33 -71 -90 -281 -90 -329 0 -16 -4
-32 -10 -35 -5 -3 -10 3 -10 13 0 31 -68 221 -103 286 -61 115 -157 184 -225
160 -52 -18 -99 -137 -132 -334 -11 -63 -20 -117 -20 -120 0 -3 -36 67 -80
155 -44 88 -77 151 -74 140 4 -11 37 -108 74 -215 l67 -195 -8 -160 c-15 -269
12 -543 61 -623 25 -41 63 -51 98 -25 90 67 96 235 19 500 -21 73 -22 84 -10
173 25 197 66 431 74 418 19 -34 79 -233 98 -323 11 -55 30 -172 41 -260 22
-168 60 -356 82 -402 7 -16 30 -36 51 -47 38 -18 39 -18 65 1 43 32 51 72 52
268 1 493 42 831 113 936 31 46 81 52 126 13 108 -90 258 -419 292 -638 11
-68 7 -362 -6 -431 -3 -16 6 -3 19 31 32 79 54 187 62 306 l7 97 29 -61 c64
-135 240 -256 427 -294 112 -22 312 -15 426 15 108 29 273 111 337 168 107 94
272 256 243 238 -282 -177 -419 -247 -568 -287 -68 -18 -108 -22 -237 -22
-136 0 -163 2 -220 22 -139 49 -223 133 -255 257 -38 148 5 345 110 505 98
150 207 221 313 205 110 -16 238 -236 211 -363 -9 -47 -59 -94 -122 -118 -42
-15 -78 -19 -194 -19 -159 0 -160 -2 -19 -53 57 -21 89 -26 166 -27 86 0 99 3
142 28 81 47 119 132 120 262 0 178 -95 356 -226 422 -54 28 -150 39 -197 24z"/>
<path d="M3042 5939 c-409 -39 -768 -282 -922 -623 -160 -352 -75 -837 236
-1349 55 -91 197 -294 261 -373 18 -23 33 -43 33 -46 0 -3 -14 -8 -31 -12 -17
-3 -94 -33 -171 -67 -492 -214 -851 -259 -1093 -137 -209 105 -323 318 -356
668 -33 355 68 934 251 1428 21 59 38 108 36 110 -5 4 -96 -140 -144 -228
-117 -214 -220 -526 -273 -825 -27 -153 -37 -480 -19 -622 41 -325 180 -571
386 -680 199 -106 476 -104 796 6 146 50 153 53 421 187 125 63 233 114 240
114 6 -1 26 -18 42 -39 17 -21 52 -64 78 -94 l48 -56 -35 -109 c-19 -60 -40
-140 -46 -178 -11 -68 -6 -159 10 -169 4 -2 20 26 35 63 31 75 108 229 128
256 12 16 37 -6 263 -231 137 -137 339 -333 449 -434 209 -192 620 -560 628
-562 9 -3 662 590 892 810 573 548 944 1002 1149 1403 176 343 249 692 200
950 -101 534 -632 894 -1241 841 -414 -36 -687 -224 -940 -647 -30 -52 -57
-94 -58 -94 -2 0 -27 39 -56 87 -259 430 -521 614 -930 652 -125 12 -145 12
-267 0z m2548 -584 c60 -31 106 -114 95 -172 -3 -18 -20 -49 -36 -68 l-31 -35
24 -9 c361 -138 388 -150 388 -178 0 -9 -29 -91 -64 -182 -36 -91 -69 -178
-75 -193 -9 -25 -13 -26 -40 -17 -24 8 -33 20 -41 49 -6 22 -24 50 -41 64 -99
83 -247 -44 -249 -212 -1 -124 86 -188 179 -131 35 21 91 19 91 -4 0 -15 -151
-399 -163 -414 -5 -7 -19 -13 -31 -12 -28 0 -438 162 -440 173 0 4 23 17 52
28 37 14 57 28 67 48 20 40 19 57 -9 105 -38 64 -118 110 -210 121 -132 16
-206 -71 -143 -166 13 -19 22 -40 20 -46 -4 -12 -357 120 -387 145 -9 7 -16
23 -15 35 0 11 33 104 73 206 45 114 70 189 64 195 -6 6 -23 2 -48 -13 -55
-31 -109 -29 -142 6 -15 15 -32 40 -37 55 -46 122 65 307 185 307 33 0 92 -57
100 -98 5 -25 31 -51 39 -40 1 2 34 89 74 193 81 211 93 235 119 235 10 0 99
-31 198 -70 98 -38 183 -70 188 -70 4 0 5 7 2 16 -11 28 4 80 32 113 48 57
141 72 212 36z"/>
<path d="M7822 3660 c-253 -68 -382 -251 -382 -542 0 -59 3 -108 8 -108 4 0
15 28 25 63 91 315 324 474 644 437 222 -25 432 -118 613 -273 88 -74 87 -74
53 25 -55 158 -254 312 -498 384 -126 37 -353 44 -463 14z"/>
<path d="M7187 3625 c16 -63 7 -405 -15 -577 -29 -218 -29 -287 -1 -322 86
-110 233 -64 631 196 112 73 234 149 272 169 l69 37 -38 12 c-87 29 -195 -6
-455 -145 -166 -89 -275 -135 -320 -135 -17 0 -20 6 -20 48 0 26 7 90 15 142
19 123 19 260 0 335 -19 73 -76 191 -116 236 l-29 34 7 -30z"/>
<path d="M11384 3636 c-61 -43 -81 -308 -36 -476 13 -47 40 -121 61 -165 l37
-80 -13 -69 c-16 -87 -53 -164 -100 -210 -58 -56 -97 -71 -183 -70 -63 0 -85
5 -140 32 -126 61 -223 162 -287 299 -47 101 -50 139 -20 258 66 259 75 405
25 405 -14 0 -87 -71 -107 -103 -67 -111 -88 -312 -50 -487 25 -116 26 -134
16 -200 -6 -39 -5 -41 4 -15 6 17 13 36 15 44 3 8 23 -22 45 -66 112 -225 307
-347 524 -329 183 15 332 108 402 250 l26 54 58 -48 c243 -202 613 -250 894
-116 71 34 171 103 214 150 30 32 22 33 -27 3 -61 -38 -172 -85 -257 -109
-115 -32 -326 -33 -438 0 -139 40 -251 106 -348 203 l-57 59 5 102 c13 243
-78 575 -182 667 -40 35 -52 37 -81 17z"/>
<path d="M9678 3314 c-102 -24 -209 -92 -249 -158 -33 -54 -21 -57 46 -11 83
56 114 65 260 72 193 9 307 -23 404 -113 82 -76 114 -148 119 -274 7 -160 -49
-316 -155 -430 -125 -136 -226 -153 -376 -64 -224 133 -413 402 -382 543 8 39
47 86 89 108 17 9 69 24 116 33 l85 16 -60 23 c-137 54 -225 37 -270 -52 -101
-203 94 -671 352 -844 l52 -35 -93 -116 c-51 -65 -132 -171 -181 -237 -48 -66
-91 -124 -95 -128 -4 -5 -62 158 -129 361 -108 331 -121 377 -121 441 0 90
-15 161 -50 236 -45 94 -110 144 -144 110 -49 -49 -42 -197 20 -406 20 -68 36
-134 36 -147 -3 -36 -51 -130 -79 -152 -119 -93 -324 5 -619 295 -68 67 -124
120 -124 118 0 -7 78 -113 148 -200 87 -110 219 -235 296 -282 78 -47 132 -64
201 -65 76 -1 139 33 193 105 l37 50 37 -118 c21 -65 67 -213 103 -329 l66
-211 -47 -79 c-82 -138 -190 -369 -232 -496 -160 -485 -57 -764 320 -860 143
-36 232 -11 285 79 40 68 53 142 53 301 0 237 -56 542 -181 974 -21 75 -39
143 -39 152 0 15 33 69 228 376 154 242 135 220 179 204 21 -7 64 -13 96 -14
151 -1 279 81 419 265 103 134 148 256 148 395 0 156 -44 255 -170 380 -64 65
-104 95 -160 123 -143 71 -301 93 -432 61z m-369 -2214 c88 -339 122 -534 124
-705 0 -91 -3 -118 -20 -157 -36 -79 -86 -86 -205 -29 -85 40 -142 97 -181
179 -30 64 -32 73 -32 187 1 184 39 313 177 598 44 89 75 142 79 135 4 -7 30
-101 58 -208z"/>
<path d="M6437 3000 c-108 -20 -170 -141 -117 -227 11 -18 16 -33 12 -33 -48
0 -398 -52 -408 -61 -19 -16 -18 -44 11 -269 14 -107 25 -196 25 -197 0 -12
-41 1 -56 18 -120 133 -271 -43 -202 -236 29 -79 100 -133 159 -120 26 6 89
65 89 84 0 9 30 24 36 18 2 -1 15 -93 29 -204 14 -111 28 -209 31 -217 10 -26
38 -27 206 -6 219 27 238 30 238 40 0 5 -18 19 -40 31 -95 54 -86 146 21 204
116 63 287 35 320 -53 13 -35 -5 -85 -43 -117 -19 -16 -27 -30 -22 -35 14 -14
464 46 482 63 12 13 10 46 -14 241 l-28 227 -31 -7 c-16 -3 -34 -13 -40 -21
-71 -112 -173 -108 -234 11 -94 182 44 392 178 271 34 -31 44 -35 68 -28 l29
8 -27 210 c-15 116 -28 211 -28 212 -1 1 -9 7 -20 12 -13 8 -75 3 -212 -14
-107 -14 -199 -25 -206 -25 -8 0 -10 18 -6 58 4 48 1 62 -19 92 -37 55 -110
83 -181 70z"/>
</g>
</svg>
